<svg width="24" height="24" viewBox="0 0 24 24" fill="none" xmlns="http://www.w3.org/2000/svg">
<path d="M8.64905 10.574V15.483" stroke="#323232" stroke-width="1.5" stroke-linecap="round" stroke-linejoin="round"/>
<path d="M11.92 15.483V12.619C11.92 11.489 12.835 10.574 13.965 10.574V10.574C15.095 10.574 16.01 11.489 16.01 12.619V15.483" stroke="#323232" stroke-width="1.5" stroke-linecap="round" stroke-linejoin="round"/>
<path d="M8.64695 7.608C8.53395 7.608 8.44195 7.7 8.44295 7.813C8.44295 7.926 8.53495 8.018 8.64795 8.018C8.76095 8.018 8.85295 7.926 8.85295 7.813C8.85195 7.699 8.75995 7.608 8.64695 7.608" stroke="#323232" stroke-width="1.5" stroke-linecap="round" stroke-linejoin="round"/>
<path d="M19.071 4.929C22.976 8.834 22.976 15.166 19.071 19.071C15.166 22.976 8.83399 22.976 4.92899 19.071C1.02399 15.166 1.02399 8.834 4.92899 4.929C8.83399 1.024 15.166 1.024 19.071 4.929" stroke="#323232" stroke-width="1.5" stroke-linecap="round" stroke-linejoin="round"/>
</svg>
